<?xml version="1.0" encoding="UTF-8" standalone="no"?>
<!-- Created with Inkscape (http://www.inkscape.org/) -->

<svg
   xmlns:osb="http://www.openswatchbook.org/uri/2009/osb"
   xmlns:dc="http://purl.org/dc/elements/1.1/"
   xmlns:cc="http://creativecommons.org/ns#"
   xmlns:rdf="http://www.w3.org/1999/02/22-rdf-syntax-ns#"
   xmlns:svg="http://www.w3.org/2000/svg"
   xmlns="http://www.w3.org/2000/svg"
   xmlns:xlink="http://www.w3.org/1999/xlink"
   xmlns:sodipodi="http://sodipodi.sourceforge.net/DTD/sodipodi-0.dtd"
   xmlns:inkscape="http://www.inkscape.org/namespaces/inkscape"
   width="64.166878mm"
   height="62.773983mm"
   viewBox="0 0 64.166878 62.773983"
   version="1.1"
   id="svg3585"
   inkscape:version="0.92.3 (2405546, 2018-03-11)"
   sodipodi:docname="logo.svg">
  <defs
     id="defs3579">
    <linearGradient
       id="linearGradient5622"
       osb:paint="solid">
      <stop
         style="stop-color:#fd1b1b;stop-opacity:1;"
         offset="0"
         id="stop5620" />
    </linearGradient>
    <radialGradient
       fx="0"
       fy="0"
       cx="0"
       cy="0"
       r="1"
       gradientUnits="userSpaceOnUse"
       gradientTransform="matrix(88.971435,0,0,-88.971435,496.81348,502.01953)"
       spreadMethod="pad"
       id="radialGradient2231">
      <stop
         style="stop-opacity:1;stop-color:#00bf09"
         offset="0"
         id="stop2225" />
      <stop
         style="stop-opacity:1;stop-color:#00bf09"
         offset="0.79908705"
         id="stop2227" />
      <stop
         style="stop-opacity:1;stop-color:#007f13"
         offset="1"
         id="stop2229" />
    </radialGradient>
    <linearGradient
       inkscape:collect="always"
       xlink:href="#linearGradient5622"
       id="linearGradient5624"
       x1="407.84201"
       y1="502.01999"
       x2="585.78497"
       y2="502.01999"
       gradientUnits="userSpaceOnUse" />
    <linearGradient
       inkscape:collect="always"
       xlink:href="#linearGradient5622"
       id="linearGradient5626"
       gradientUnits="userSpaceOnUse"
       x1="407.84201"
       y1="502.01999"
       x2="585.78497"
       y2="502.01999" />
    <linearGradient
       inkscape:collect="always"
       xlink:href="#linearGradient5622"
       id="linearGradient5628"
       gradientUnits="userSpaceOnUse"
       x1="407.84201"
       y1="502.01999"
       x2="585.78497"
       y2="502.01999" />
    <linearGradient
       inkscape:collect="always"
       xlink:href="#linearGradient5622"
       id="linearGradient5630"
       gradientUnits="userSpaceOnUse"
       x1="407.84201"
       y1="502.01999"
       x2="585.78497"
       y2="502.01999" />
  </defs>
  <sodipodi:namedview
     id="base"
     pagecolor="#ffffff"
     bordercolor="#666666"
     borderopacity="1.0"
     inkscape:pageopacity="0.0"
     inkscape:pageshadow="2"
     inkscape:zoom="0.76"
     inkscape:cx="77.74838"
     inkscape:cy="107.8761"
     inkscape:document-units="mm"
     inkscape:current-layer="g2213"
     showgrid="false"
     inkscape:window-width="1920"
     inkscape:window-height="1057"
     inkscape:window-x="-8"
     inkscape:window-y="-8"
     inkscape:window-maximized="1" />
  <metadata
     id="metadata3582">
    <rdf:RDF>
      <cc:Work
         rdf:about="">
        <dc:format>image/svg+xml</dc:format>
        <dc:type
           rdf:resource="http://purl.org/dc/dcmitype/StillImage" />
        <dc:title></dc:title>
      </cc:Work>
    </rdf:RDF>
  </metadata>
  <g
     inkscape:label="Capa 1"
     inkscape:groupmode="layer"
     id="layer1"
     transform="translate(-44.566149,-86.750693)">
    <g
       transform="matrix(0.35277777,0,0,-0.35277777,-95.133806,298.72054)"
       id="g2213">
      <g
         id="g2215"
         transform="matrix(1.0055458,0,0,1,-12.130245,8.8815792)"
         style="opacity:1;fill:url(#linearGradient5624);fill-opacity:1"
         inkscape:export-xdpi="12.138787"
         inkscape:export-ydpi="12.138787"
         inkscape:export-filename="F:\UOC\UOC LENGUAJES Y ESTANDARES WEB\Examenes\Practica final\2023-2 (segund semestre feb 2024)\para profesorado\posible_solucion_practica_final\images\logo.png">
        <g
           id="g2221"
           style="fill:url(#linearGradient5630);fill-opacity:1">
          <g
             id="g2223"
             style="fill:url(#linearGradient5628);fill-opacity:1">
            <path
               d="m 407.842,502.02 c 0,-49.059 39.912,-88.971 88.972,-88.971 v 0 c 49.057,0 88.971,39.912 88.971,88.971 v 0 c 0,49.059 -39.914,88.971 -88.971,88.971 v 0 c -49.06,0 -88.972,-39.912 -88.972,-88.971 M 546.67,535.974 C 564.525,501.082 499.586,444.5 497.131,442.377 v 0 c -0.006,-0.056 -0.006,-0.112 -0.006,-0.112 v 0 c 0,0 -0.023,0.023 -0.057,0.056 v 0 h -0.015 v 0.011 c -2.455,2.123 -67.395,58.705 -49.545,93.608 v 0 c 9.549,18.647 46.551,24.365 49.584,-14.278 v 0 c 2.998,38.688 40.023,32.981 49.578,14.312 m -49.578,-21.311 c -2.192,27.972 -28.971,23.838 -35.879,10.335 v 0 c -12.92,-25.252 34.071,-66.197 35.85,-67.725 v 0 -0.023 h 0.005 c 0.034,-0.01 0.047,-0.022 0.047,-0.022 v 0 c 0,0 0,0.022 0.005,0.067 v 0 c 1.781,1.551 48.762,42.484 35.845,67.737 v 0 c -3.192,6.233 -10.62,10.47 -17.906,10.47 v 0 c -8.497,0.001 -16.8,-5.761 -17.967,-20.839"
               style="fill:url(#linearGradient5626);fill-opacity:1;stroke:none"
               id="path2233"
               inkscape:connector-curvature="0" />
          </g>
        </g>
      </g>
    </g>
  </g>
</svg>
